<?xml version="1.0" standalone="no"?>
<!DOCTYPE svg PUBLIC "-//W3C//DTD SVG 20010904//EN"
 "http://www.w3.org/TR/2001/REC-SVG-20010904/DTD/svg10.dtd">
<svg version="1.0" xmlns="http://www.w3.org/2000/svg"
 width="512.000000pt" height="512.000000pt" viewBox="0 0 512.000000 512.000000"
 preserveAspectRatio="xMidYMid meet">
<metadata>
Created by potrace 1.14, written by Peter Selinger 2001-2017
</metadata>
<g transform="translate(0.000000,512.000000) scale(0.100000,-0.100000)"
fill="#000000" stroke="none">
<path d="M1003 4418 l1 -703 -148 -3 c-143 -2 -148 -1 -143 17 6 23 -18 61
-38 61 -7 0 -21 -7 -29 -16 -13 -12 -16 -41 -16 -150 l0 -134 -68 0 -69 0 1
71 c1 84 -5 92 -82 95 -90 4 -92 1 -92 -126 0 -104 -1 -109 -21 -105 -11 2
-31 0 -45 -5 -24 -9 -24 -11 -24 -144 0 -146 0 -146 61 -146 l29 0 0 -109 c0
-125 -3 -121 95 -121 76 0 82 6 79 97 -1 58 0 61 24 66 14 3 32 3 39 0 11 -4
13 -266 15 -1442 0 -790 2 -1440 3 -1446 10 -71 75 -146 142 -164 58 -16 3672
-15 3726 1 50 15 111 75 128 126 9 29 12 367 12 1515 0 1222 3 1477 14 1477 7
0 13 -11 13 -24 0 -13 6 -28 13 -34 18 -14 106 -9 116 7 5 7 7 39 6 70 l-3 56
57 0 57 -1 0 275 c-1 251 1 277 16 290 15 13 18 33 18 133 0 78 -4 119 -12
124 -16 10 -100 6 -112 -6 -9 -9 -16 -199 -8 -232 2 -10 11 -18 18 -18 12 0
14 -38 14 -211 l0 -210 -22 3 c-20 3 -22 9 -23 58 -1 31 -4 61 -9 68 -4 7 -29
12 -61 12 -54 0 -65 -8 -65 -49 0 -15 -8 -18 -42 -17 l-43 2 -2 167 c-1 165
-7 197 -37 197 -21 0 -39 -18 -42 -42 -1 -12 -3 -26 -3 -30 -1 -3 -66 -6 -146
-7 l-145 0 0 704 0 705 -1573 0 -1574 0 0 -702z"/>
</g>
</svg>
